<svg xmlns="http://www.w3.org/2000/svg" version="1.1" xmlns:xlink="http://www.w3.org/1999/xlink" xmlns:svgjs="http://svgjs.dev/svgjs" viewBox="0 0 800 800" opacity="1"><defs><filter id="bbburst-blur-1" x="-100%" y="-100%" width="400%" height="400%"><feGaussianBlur in="SourceGraphic" stdDeviation="1"></feGaussianBlur></filter><filter id="bbburst-blur-2" x="-100%" y="-100%" width="400%" height="400%"><feGaussianBlur in="SourceGraphic" stdDeviation="2"></feGaussianBlur></filter><filter id="bbburst-blur-3" x="-100%" y="-100%" width="400%" height="400%"><feGaussianBlur in="SourceGraphic" stdDeviation="4"></feGaussianBlur></filter><filter id="bbburst-blur-4" x="-100%" y="-100%" width="400%" height="400%"><feGaussianBlur in="SourceGraphic" stdDeviation="12"></feGaussianBlur></filter><symbol id="bbburst-shape-1" viewBox="0 0 194 167"><path d="m97 0 96.129 166.5H.871L97 0Z"></path></symbol><symbol id="bbburst-shape-2" viewBox="0 0 126 115"><path d="m63 0 62.77 43.877-23.976 70.996H24.206L.23 43.877 63 0Z"></path></symbol><symbol id="bbburst-shape-5" viewBox="0 0 145 145"><circle cx="72.5" cy="72.5" r="72.5"></circle></symbol><symbol id="bbburst-shape-8" viewBox="0 0 87 168"><path d="m12 12 31.2546 18.0749c16.4102 9.4902 20.014 31.6325 7.4603 45.8369L36.3296 92.1884c-12.5684 14.2206-8.9394 36.3916 7.5068 45.8636L75 156" stroke-width="14" stroke-linecap="round" stroke-linejoin="round"></path></symbol><symbol id="bbburst-shape-10" viewBox="0 0 145 145"><circle cx="72.5" cy="72.5" r="61.5" fill="none" stroke-width="22"></circle></symbol><symbol id="bbburst-shape-13" viewBox="0 0 159 159"><path stroke-width="22" d="M11 11h137v137H11z"></path></symbol><symbol id="bbburst-shape-14" viewBox="0 0 185 109"><path d="M168 16.5C168 58.1975 134.197 92 92.5 92 50.8025 92 17 58.1975 17 16.5" stroke-width="33" stroke-linecap="round"></path></symbol></defs><use xlink:href="#bbburst-shape-5" width="11.44632293605453" opacity="0.9530030395374457" transform="matrix(0.8397316137360511,0.5430016730105418,-0.5430016730105418,0.8397316137360511,977.7030128444279,-307.2954832886758)" fill="#ffb400"></use><use xlink:href="#bbburst-shape-2" width="42.497367235877846" opacity="0.5791506643666341" transform="matrix(0.9834326582613815,0.1812738444038544,-0.1812738444038544,0.9834326582613815,517.8624606529472,-140.8302557551516)" fill="#ffb400" filter="url(#bbburst-blur-1)"></use><use xlink:href="#bbburst-shape-8" width="10.520597851714548" opacity="0.805422289119182" transform="matrix(0.7567535687384684,0.6537002648015312,-0.6537002648015312,0.7567535687384684,863.7934148379484,-287.741873806249)" fill="none" stroke="#46a421"></use><use xlink:href="#bbburst-shape-10" width="36.68249039655825" opacity="0.3556038749039502" transform="matrix(0.9300993130920646,0.36730813738014245,-0.36730813738014245,0.9300993130920646,877.5191978140743,263.4899805132196)" fill="none" stroke="#052e65" filter="url(#bbburst-blur-2)"></use><use xlink:href="#bbburst-shape-10" width="18.597030709345532" opacity="0.7699640139476509" transform="matrix(0.9805247428537437,0.19639559224076217,-0.19639559224076217,0.9805247428537437,735.3725580259513,-207.10760850816393)" fill="none" stroke="#ffb400"></use><use xlink:href="#bbburst-shape-13" width="13.01672833319783" opacity="0.8211092662503269" transform="matrix(0.7855876317422742,-0.6187504124067837,0.6187504124067837,0.7855876317422742,373.45540236801173,-268.3784802021633)" fill="none" stroke="#46a421"></use><use xlink:href="#bbburst-shape-13" width="10.504413089928342" opacity="0.9376067039640136" transform="matrix(0.9992729355861985,-0.038126109228995196,0.038126109228995196,0.9992729355861985,722.5888952688898,-373.9371512674756)" fill="none" stroke="#46a421"></use><use xlink:href="#bbburst-shape-1" width="62.428046714307484" opacity="0.29086724243446116" transform="matrix(0.9615356478013131,-0.2746801740339286,0.2746801740339286,0.9615356478013131,20.589614777040964,-69.6154392359029)" fill="#ffb400" filter="url(#bbburst-blur-2)"></use><use xlink:href="#bbburst-shape-13" width="12.137504852130922" opacity="0.8600205804475362" transform="matrix(0.8606358271752612,0.5092209471166262,-0.5092209471166262,0.8606358271752612,921.4939928536389,-230.42742503306619)" fill="none" stroke="#46a421"></use><use xlink:href="#bbburst-shape-13" width="14.10690705061069" opacity="0.7736167727125562" transform="matrix(0.994507029529838,0.10466980565443787,-0.10466980565443787,0.994507029529838,609.6864503512392,-375.1040967011702)" fill="none" stroke="#00a19d"></use><use xlink:href="#bbburst-shape-14" width="8.09457645999854" opacity="0.9020771987623609" transform="matrix(0.7088612270295369,0.7053479714397564,-0.7053479714397564,0.7088612270295369,1064.2041631346615,-189.63343985929748)" fill="none" stroke="#ffb400"></use><use xlink:href="#bbburst-shape-10" width="7.901726016165346" opacity="0.9148711388826913" transform="matrix(0.8102652831744398,0.5860632823187654,-0.5860632823187654,0.8102652831744398,959.9582523691325,-279.858633549612)" fill="none" stroke="#ffb400"></use><use xlink:href="#bbburst-shape-10" width="8.574593755038968" opacity="0.9263241350796767" transform="matrix(0.9665644342959511,-0.25642385683502256,0.25642385683502256,0.9665644342959511,642.737356722499,-331.92681821464055)" fill="none" stroke="#00a19d"></use><use xlink:href="#bbburst-shape-13" width="39.44337729154647" opacity="0.44886264668444853" transform="matrix(0.8621415778033635,-0.5066674449999001,0.5066674449999001,0.8621415778033635,263.9286217587552,116.40333853615869)" fill="none" stroke="#052e65" filter="url(#bbburst-blur-2)"></use><use xlink:href="#bbburst-shape-10" width="47.65764841459552" opacity="0.36111252529422" transform="matrix(0.9943725973478311,-0.10593931113485729,0.10593931113485729,0.9943725973478311,301.1461085183541,74.74949396357005)" fill="none" stroke="#e06167" filter="url(#bbburst-blur-2)"></use><use xlink:href="#bbburst-shape-5" width="34.057331376914085" opacity="0.45645674278631343" transform="matrix(0.9816228820085328,-0.19083112303097277,0.19083112303097277,0.9816228820085328,650.4265776320619,151.1965659121637)" fill="#ffb400" filter="url(#bbburst-blur-1)"></use><use xlink:href="#bbburst-shape-5" width="41.62002664324484" opacity="0.4090927758924159" transform="matrix(0.7130332723461116,-0.7011301965593807,0.7011301965593807,0.7130332723461116,-84.12708917834834,-221.20028526182296)" fill="#46a421" filter="url(#bbburst-blur-2)"></use><use xlink:href="#bbburst-shape-14" width="48.44665854246417" opacity="0.29701397856837797" transform="matrix(0.9835445336943395,0.18066585244584613,-0.18066585244584613,0.9835445336943395,465.47886973226633,191.79373480967274)" fill="none" stroke="#00a19d" filter="url(#bbburst-blur-2)"></use><use xlink:href="#bbburst-shape-1" width="36.096966911837555" opacity="0.2680977939993162" transform="matrix(0.9717390244892729,0.23605776472007084,-0.23605776472007084,0.9717390244892729,165.26760358518317,-221.7454565388057)" fill="#e06167" filter="url(#bbburst-blur-2)"></use><use xlink:href="#bbburst-shape-13" width="9.127344687236288" opacity="0.9094972197399521" transform="matrix(0.7605206646705561,-0.6493137289546984,0.6493137289546984,0.7605206646705561,499.16222998797286,-218.94149034199853)" fill="none" stroke="#ffb400"></use><use xlink:href="#bbburst-shape-13" width="11.56014124570368" opacity="0.8677922401205393" transform="matrix(0.8792145531392566,-0.47642603785701876,0.47642603785701876,0.8792145531392566,477.6879952152947,-311.03461656124216)" fill="none" stroke="#00a19d"></use><use xlink:href="#bbburst-shape-13" width="5.517075885496739" opacity="0.9587716429905406" transform="matrix(0.8176213240883083,-0.5757563463793355,0.5757563463793355,0.8176213240883083,552.7926792178673,-286.9223245376125)" fill="none" stroke="#e06167"></use><use xlink:href="#bbburst-shape-14" width="18.202195887911877" opacity="0.8320764983711935" transform="matrix(0.7644699295240577,-0.6446593882458257,0.6446593882458257,0.7644699295240577,477.532636982311,-142.18902041048975)" fill="none" stroke="#052e65"></use><use xlink:href="#bbburst-shape-13" width="26.79306127924934" opacity="0.6676237271378589" transform="matrix(0.9931070936531522,0.11721049669628217,-0.11721049669628217,0.9931070936531522,579.876071548161,-184.08460062756714)" fill="none" stroke="#ffb400"></use><use xlink:href="#bbburst-shape-13" width="9.850384174894572" opacity="0.8846038288153178" transform="matrix(0.8854166054240179,-0.46479827327498646,0.46479827327498646,0.8854166054240179,522.549119315179,-276.2630004813891)" fill="none" stroke="#ffb400"></use><use xlink:href="#bbburst-shape-13" width="15.883813239871465" opacity="0.7947318839588824" transform="matrix(0.7434550742169777,-0.6687858795018241,0.6687858795018241,0.7434550742169777,333.20883842706684,-223.2074857140853)" fill="none" stroke="#00a19d"></use><use xlink:href="#bbburst-shape-5" width="15.84038438217161" opacity="0.7813751667406176" transform="matrix(0.9562707128453654,-0.29248303156630606,0.29248303156630606,0.9562707128453654,593.7725003299602,-177.3904011502412)" fill="#ffb400"></use><use xlink:href="#bbburst-shape-8" width="39.54345414917671" opacity="0.17861410403179812" transform="matrix(0.8845993616388237,-0.46635176571788134,0.46635176571788134,0.8845993616388237,66.4638398732555,283.313043605141)" fill="none" stroke="#ffb400" filter="url(#bbburst-blur-3)"></use><use xlink:href="#bbburst-shape-8" width="13.526637958346827" opacity="0.7386344997874921" transform="matrix(0.9814484105336628,0.19172641304981153,-0.19172641304981153,0.9814484105336628,610.5598983875547,-362.64479590165905)" fill="none" stroke="#00a19d"></use><use xlink:href="#bbburst-shape-5" width="37.781007039799654" opacity="0.4476047150570672" transform="matrix(0.9720933122010808,0.23459452758735033,-0.23459452758735033,0.9720933122010808,337.9618414537375,-265.9083782222647)" fill="#ffb400" filter="url(#bbburst-blur-2)"></use><use xlink:href="#bbburst-shape-13" width="22.310173842796654" opacity="0.6075986603207605" transform="matrix(0.92900093820564,0.37007736598316937,-0.37007736598316937,0.92900093820564,546.254315553128,-347.9031278911361)" fill="none" stroke="#ffb400" filter="url(#bbburst-blur-1)"></use><use xlink:href="#bbburst-shape-10" width="32.428354994982335" opacity="0.5336790913791447" transform="matrix(0.9998929343980751,0.014632830922502147,-0.014632830922502147,0.9998929343980751,477.92271786851677,-53.37011349344863)" fill="none" stroke="#00a19d" filter="url(#bbburst-blur-1)"></use><use xlink:href="#bbburst-shape-1" width="20.13799519764486" opacity="0.7368242499466355" transform="matrix(0.8654404841471729,-0.5010117447716241,0.5010117447716241,0.8654404841471729,401.0040567292316,-158.89155770453524)" fill="#052e65"></use><use xlink:href="#bbburst-shape-5" width="18.311775847716575" opacity="0.6959525244830285" transform="matrix(0.9662285095752742,-0.2576867619493563,0.2576867619493563,0.9662285095752742,391.44401309888116,-317.40284249430914)" fill="#052e65"></use><use xlink:href="#bbburst-shape-10" width="18.63454083147226" opacity="0.7200116959471361" transform="matrix(0.9170276556404188,0.39882361864693716,-0.39882361864693716,0.9170276556404188,711.3141102154285,-225.7817604420039)" fill="none" stroke="#052e65"></use><use xlink:href="#bbburst-shape-2" width="21.461486777303193" opacity="0.7119515907673588" transform="matrix(0.9695436702427151,-0.2449184996938477,0.2449184996938477,0.9695436702427151,599.0518851720376,-112.41347251909235)" fill="#46a421"></use><use xlink:href="#bbburst-shape-2" width="49.95243993984284" opacity="0.29701554701535604" transform="matrix(0.9978284541568837,-0.06586635009535416,0.06586635009535416,0.9978284541568837,488.7413602390051,255.67848599334394)" fill="#46a421" filter="url(#bbburst-blur-2)"></use><use xlink:href="#bbburst-shape-2" width="17.361216762749567" opacity="0.7636326483827276" transform="matrix(0.9652446867895278,0.2613478422038077,-0.2613478422038077,0.9652446867895278,702.1823195589666,-253.29151386343358)" fill="#ffb400"></use><use xlink:href="#bbburst-shape-2" width="46.06191568222714" opacity="0.3607570150084183" transform="matrix(0.9997138149445912,-0.02392254603782178,0.02392254603782178,0.9997138149445912,245.7833364915171,-29.79793497913505)" fill="#00a19d" filter="url(#bbburst-blur-2)"></use><use xlink:href="#bbburst-shape-1" width="25.07824132246656" opacity="0.6494525777263294" transform="matrix(0.9736842318640032,0.22790133088555214,-0.22790133088555214,0.9736842318640032,795.4953482633921,-51.82991780785704)" fill="#46a421" filter="url(#bbburst-blur-1)"></use><use xlink:href="#bbburst-shape-13" width="11.673880865927286" opacity="0.8981615521847193" transform="matrix(0.8269834880953348,-0.5622262092945092,0.5622262092945092,0.8269834880953348,469.39891168773767,-313.5984044430323)" fill="none" stroke="#00a19d"></use><use xlink:href="#bbburst-shape-8" width="14.08859527205736" opacity="0.8417703655165204" transform="matrix(0.9260326626537032,0.3774433834345129,-0.3774433834345129,0.9260326626537032,787.0112857980005,-357.31190941756347)" fill="none" stroke="#e06167"></use><use xlink:href="#bbburst-shape-2" width="5.954134887798138" opacity="0.9887266713754863" transform="matrix(0.7203930683490655,-0.6935660221454182,0.6935660221454182,0.7203930683490655,511.86703967394453,-278.75909069150043)" fill="#ffb400"></use><use xlink:href="#bbburst-shape-2" width="10.566497540305479" opacity="0.9363976350624963" transform="matrix(0.9849689470088014,-0.17273150676229565,0.17273150676229565,0.9849689470088014,696.0529615548396,-336.80210127531944)" fill="#46a421"></use><use xlink:href="#bbburst-shape-5" width="19.69799606680901" opacity="0.7292806576901409" transform="matrix(0.9976708157387902,-0.0682124872959265,0.0682124872959265,0.9976708157387902,633.354122587981,-160.67882858417437)" fill="#ffb400"></use><use xlink:href="#bbburst-shape-5" width="30.69205594140085" opacity="0.6171457686699027" transform="matrix(0.9986019024092346,-0.052860576090859035,0.052860576090859035,0.9986019024092346,515.6623460452722,-106.84469688264625)" fill="#00a19d" filter="url(#bbburst-blur-1)"></use><use xlink:href="#bbburst-shape-14" width="41.25495344874468" opacity="0.4018876618066962" transform="matrix(0.9999521511445384,0.009782403662197226,-0.009782403662197226,0.9999521511445384,524.4142527492519,139.06123446522162)" fill="none" stroke="#ffb400" filter="url(#bbburst-blur-2)"></use><use xlink:href="#bbburst-shape-14" width="19.67806142039256" opacity="0.8179889852170913" transform="matrix(0.9983521583694063,-0.05738438706780826,0.05738438706780826,0.9983521583694063,668.1357470500486,-246.07572885873086)" fill="none" stroke="#ffb400"></use><use xlink:href="#bbburst-shape-10" width="16.06928809323271" opacity="0.8311034339588845" transform="matrix(0.9476772425988115,-0.31923007981754087,0.31923007981754087,0.9476772425988115,525.4666234721701,-280.8928817414582)" fill="none" stroke="#052e65"></use><use xlink:href="#bbburst-shape-14" width="35.18795312297275" opacity="0.498150518086274" transform="matrix(0.7984618595197889,0.6020453960393692,-0.6020453960393692,0.7984618595197889,595.1285745795374,-73.88587219789764)" fill="none" stroke="#052e65" filter="url(#bbburst-blur-1)"></use><use xlink:href="#bbburst-shape-5" width="17.920399986400035" opacity="0.7490204272049341" transform="matrix(0.7166645670980086,0.6974180226135713,-0.6974180226135713,0.7166645670980086,1050.9250407236423,-42.868254662622235)" fill="#ffb400"></use><use xlink:href="#bbburst-shape-10" width="68.92780397449066" opacity="-0.015217997065733124" transform="matrix(0.9993578172292887,0.03583229189867162,-0.03583229189867162,0.9993578172292887,66.85378851202705,321.6873723934852)" fill="none" stroke="#ffb400" filter="url(#bbburst-blur-3)"></use><use xlink:href="#bbburst-shape-2" width="33.425590613522466" opacity="0.4868556001428226" transform="matrix(0.8348136634820076,-0.5505326032704598,0.5505326032704598,0.8348136634820076,395.8465317531805,159.4568465059238)" fill="#052e65" filter="url(#bbburst-blur-1)"></use><use xlink:href="#bbburst-shape-13" width="18.011305794954467" opacity="0.7992071090498742" transform="matrix(0.9225804806102156,0.38580468737046686,-0.38580468737046686,0.9225804806102156,802.0091705894223,-232.57607478786224)" fill="none" stroke="#00a19d"></use><use xlink:href="#bbburst-shape-10" width="40.887112222964504" opacity="0.5122222401889418" transform="matrix(0.9899250125370423,0.141592618287595,-0.141592618287595,0.9899250125370423,374.3110951763353,-242.65492750061458)" fill="none" stroke="#ffb400" filter="url(#bbburst-blur-1)"></use><use xlink:href="#bbburst-shape-14" width="12.35175933667992" opacity="0.877854086886298" transform="matrix(0.8758528748336675,0.4825782233437394,-0.4825782233437394,0.8758528748336675,972.4855645842185,-232.1014679163564)" fill="none" stroke="#46a421"></use><use xlink:href="#bbburst-shape-2" width="20.884344674268036" opacity="0.6296158628198807" transform="matrix(0.7866215462224702,-0.6174354565609026,0.6174354565609026,0.7866215462224702,397.1723180031215,31.490802086086887)" fill="#052e65" filter="url(#bbburst-blur-1)"></use><use xlink:href="#bbburst-shape-13" width="46.38205345517616" opacity="0.20180129213216424" transform="matrix(0.7609168412749012,0.648849412933561,-0.648849412933561,0.7609168412749012,290.0941562885557,-51.23664974967153)" fill="none" stroke="#46a421" filter="url(#bbburst-blur-3)"></use><use xlink:href="#bbburst-shape-13" width="38.08537512779736" opacity="0.4161757981676655" transform="matrix(0.9981801742740779,0.060302070330723476,-0.060302070330723476,0.9981801742740779,277.45349523317026,-150.5676754090143)" fill="none" stroke="#ffb400" filter="url(#bbburst-blur-2)"></use><use xlink:href="#bbburst-shape-5" width="45.035819555792536" opacity="0.22878375111200655" transform="matrix(0.9434025000945764,-0.3316500004753548,0.3316500004753548,0.9434025000945764,12.382808879206067,69.63110991228473)" fill="#ffb400" filter="url(#bbburst-blur-3)"></use><use xlink:href="#bbburst-shape-1" width="36.815912154675885" opacity="0.571173546795829" transform="matrix(0.8650124641423026,-0.5017503730725684,0.5017503730725684,0.8650124641423026,457.4908376740806,73.19769324995326)" fill="#46a421" filter="url(#bbburst-blur-1)"></use><use xlink:href="#bbburst-shape-5" width="6.135057435084169" opacity="0.9521069624546168" transform="matrix(0.7501638577668234,-0.6612519841183067,0.6612519841183067,0.7501638577668234,486.0589628956342,-289.5725643238221)" fill="#ffb400"></use><use xlink:href="#bbburst-shape-14" width="8.396290089678411" opacity="0.9713207751858225" transform="matrix(0.8784528182320143,0.4778290972096945,-0.4778290972096945,0.8784528182320143,960.8470102561441,-342.6347891542059)" fill="none" stroke="#46a421"></use><use xlink:href="#bbburst-shape-10" width="19.324764744519904" opacity="0.707851339244568" transform="matrix(0.9912351070961011,0.132109660737514,-0.132109660737514,0.9912351070961011,571.3277900254635,-290.99804012336546)" fill="none" stroke="#e06167"></use><use xlink:href="#bbburst-shape-5" width="52.763875762135676" opacity="0.17577593352160925" transform="matrix(0.707533075878564,-0.7066802293384316,0.7066802293384316,0.707533075878564,122.57412717050732,469.049331631273)" fill="#052e65" filter="url(#bbburst-blur-3)"></use><use xlink:href="#bbburst-shape-5" width="17.54873547308498" opacity="0.6583339367627341" transform="matrix(0.8870135715937406,0.4617433527496807,-0.4617433527496807,0.8870135715937406,801.1066791196531,-65.89386843325116)" fill="#e06167"></use><use xlink:href="#bbburst-shape-13" width="14.400067405084739" opacity="0.7754967054880065" transform="matrix(0.9992528072726456,0.038650060255281046,-0.038650060255281046,0.9992528072726456,765.7477288621546,-179.53898062165112)" fill="none" stroke="#ffb400"></use><use xlink:href="#bbburst-shape-10" width="11.553754661118854" opacity="0.8661732106231941" transform="matrix(0.9153655597827025,0.40262375981019755,-0.40262375981019755,0.9153655597827025,840.2225056685054,-300.94182448733386)" fill="none" stroke="#e06167"></use><use xlink:href="#bbburst-shape-13" width="38.986558610702126" opacity="0.2520528487246505" transform="matrix(0.7472877769166577,-0.6645005481344313,0.6645005481344313,0.7472877769166577,449.2079057009396,458.66246059973184)" fill="none" stroke="#00a19d" filter="url(#bbburst-blur-2)"></use><use xlink:href="#bbburst-shape-10" width="23.000564843318912" opacity="0.6006492854098857" transform="matrix(0.8827676195820335,-0.46980988688773895,0.46980988688773895,0.8827676195820335,564.5839517600039,49.89711128215595)" fill="none" stroke="#052e65" filter="url(#bbburst-blur-1)"></use><use xlink:href="#bbburst-shape-8" width="20.405860132490787" opacity="0.6524819594488324" transform="matrix(0.8100695111457218,0.5863338529473898,-0.5863338529473898,0.8100695111457218,681.4821818275358,-286.5219513485485)" fill="none" stroke="#00a19d"></use><use xlink:href="#bbburst-shape-5" width="53.492435499278834" opacity="0.1459346462229043" transform="matrix(0.7676876265715121,0.6408242411215407,-0.6408242411215407,0.7676876265715121,289.5786457076208,91.21982854547332)" fill="#ffb400" filter="url(#bbburst-blur-3)"></use><use xlink:href="#bbburst-shape-10" width="12.06738930733827" opacity="0.8965144124800861" transform="matrix(0.999472555032722,0.03247478616346046,-0.03247478616346046,0.999472555032722,712.1552888210656,-358.4946295665591)" fill="none" stroke="#00a19d"></use><use xlink:href="#bbburst-shape-5" width="10.0605963009443" opacity="0.9245114803169426" transform="matrix(0.966066042543369,-0.2582951827746569,0.2582951827746569,0.966066042543369,679.8116231073855,-310.60020917749796)" fill="#052e65"></use><use xlink:href="#bbburst-shape-2" width="28.04659742247026" opacity="0.4900688742477852" transform="matrix(0.8326626818686823,-0.553780514484984,0.553780514484984,0.8326626818686823,58.598777792520366,-283.54996873804475)" fill="#ffb400" filter="url(#bbburst-blur-1)"></use><use xlink:href="#bbburst-shape-13" width="0.006136942405786876" opacity="0.9999807872803511" transform="matrix(0.9734103819389921,-0.22906817398622958,0.22906817398622958,0.9734103819389921,708.352314253851,-389.3553660073982)" fill="none" stroke="#46a421"></use><use xlink:href="#bbburst-shape-10" width="1.8869292759261778" opacity="0.9669972051528656" transform="matrix(0.8436779242780007,0.5368496624623733,-0.5368496624623733,0.8436779242780007,1011.1616173405268,-305.0923609545296)" fill="none" stroke="#46a421"></use><use xlink:href="#bbburst-shape-10" width="40.47187071135125" opacity="0.22507501861228185" transform="matrix(0.7908328179570424,0.6120322328457246,-0.6120322328457246,0.7908328179570424,822.2320059915916,418.1649476179543)" fill="none" stroke="#ffb400" filter="url(#bbburst-blur-3)"></use><use xlink:href="#bbburst-shape-2" width="7.977742829056026" opacity="0.9232399781824707" transform="matrix(0.7691484186792341,0.6390701917968273,-0.6390701917968273,0.7691484186792341,976.922277652649,-297.1128069716287)" fill="#052e65"></use><use xlink:href="#bbburst-shape-10" width="9.136492596152875" opacity="0.8961941230588156" transform="matrix(0.7971836961082943,-0.6037368256609155,0.6037368256609155,0.7971836961082943,492.5995573629227,-233.05610472949667)" fill="none" stroke="#00a19d"></use><use xlink:href="#bbburst-shape-5" width="10.507283984283657" opacity="0.8748979632722143" transform="matrix(0.8016840783324372,0.5977479724334251,-0.5977479724334251,0.8016840783324372,989.0174790645957,-207.424695057574)" fill="#e06167"></use><use xlink:href="#bbburst-shape-1" width="40.38676425741085" opacity="0.5502407920281339" transform="matrix(0.9086194145700941,0.41762514228228576,-0.41762514228228576,0.9086194145700941,724.984463730597,18.35024504631059)" fill="#ffb400" filter="url(#bbburst-blur-1)"></use><use xlink:href="#bbburst-shape-2" width="19.23788833250266" opacity="0.6971963671804448" transform="matrix(0.9483141373045771,-0.31733310099684797,0.31733310099684797,0.9483141373045771,473.24391713263685,-141.05780587220593)" fill="#ffb400"></use><use xlink:href="#bbburst-shape-13" width="22.89746910999776" opacity="0.6471864535065226" transform="matrix(0.9994693107342605,0.032574482350181705,-0.032574482350181705,0.9994693107342605,467.98374815261207,-285.3295292196332)" fill="none" stroke="#e06167" filter="url(#bbburst-blur-1)"></use><use xlink:href="#bbburst-shape-2" width="54.40531007963809" opacity="0.08304932244733498" transform="matrix(0.9554938971526586,0.29501086845068014,-0.29501086845068014,0.9554938971526586,177.02864418071795,183.91885618700115)" fill="#46a421" filter="url(#bbburst-blur-3)"></use><use xlink:href="#bbburst-shape-13" width="16.92178326324471" opacity="0.7074347470999148" transform="matrix(0.9997760643352643,-0.02116178589555732,0.02116178589555732,0.9997760643352643,746.2258460530362,-109.49617554214683)" fill="none" stroke="#ffb400"></use><use xlink:href="#bbburst-shape-10" width="5.973978542574708" opacity="0.9444195680569651" transform="matrix(0.9580411971772056,0.2866305365994115,-0.2866305365994115,0.9580411971772056,902.8835438234134,-329.2105455455509)" fill="none" stroke="#46a421"></use><use xlink:href="#bbburst-shape-5" width="30.739690822677936" opacity="0.5886309437620383" transform="matrix(0.9151871892995722,0.4030290418095811,-0.4030290418095811,0.9151871892995722,549.0571669270266,-268.5856341479686)" fill="#00a19d" filter="url(#bbburst-blur-1)"></use><use xlink:href="#bbburst-shape-13" width="11.17730599451115" opacity="0.8712947708450777" transform="matrix(0.9999724799654297,-0.0074188484138842286,0.0074188484138842286,0.9999724799654297,663.2888831276649,-388.06009359947046)" fill="none" stroke="#ffb400"></use><use xlink:href="#bbburst-shape-14" width="40.51030194621197" opacity="0.23659730550661162" transform="matrix(0.980171244873633,-0.1981522917426709,0.1981522917426709,0.980171244873633,-59.21870186770047,-317.2292009122627)" fill="none" stroke="#ffb400" filter="url(#bbburst-blur-3)"></use><use xlink:href="#bbburst-shape-14" width="6.943689343987599" opacity="0.975028693320381" transform="matrix(0.9986834401150351,-0.051297041240203754,0.051297041240203754,0.9986834401150351,764.5661695139621,-377.0934689851499)" fill="none" stroke="#052e65"></use><use xlink:href="#bbburst-shape-5" width="14.775105553009393" opacity="0.8489984346981538" transform="matrix(0.9917915344830519,-0.1278653671943784,0.1278653671943784,0.9917915344830519,722.4847255698794,-245.97591844674636)" fill="#ffb400"></use><use xlink:href="#bbburst-shape-10" width="31.75807659365084" opacity="0.6518526310226288" transform="matrix(0.9999944764584568,0.003323710663826191,-0.003323710663826191,0.9999944764584568,483.4588346670837,-226.8235157317128)" fill="none" stroke="#00a19d"></use><use xlink:href="#bbburst-shape-5" width="22.251031911150395" opacity="0.550366668356085" transform="matrix(0.9669950285879968,-0.2547952407053539,0.2547952407053539,0.9669950285879968,240.5462196051416,-333.3658109890143)" fill="#ffb400" filter="url(#bbburst-blur-1)"></use><use xlink:href="#bbburst-shape-14" width="44.85116819413318" opacity="0.4613059918230029" transform="matrix(0.7655362637609714,0.6433927485345887,-0.6433927485345887,0.7655362637609714,633.1799401642073,32.342798315936875)" fill="none" stroke="#052e65" filter="url(#bbburst-blur-1)"></use><use xlink:href="#bbburst-shape-10" width="47.68962785078856" opacity="0.24462591289865399" transform="matrix(0.932976384129213,-0.3599375871691912,0.3599375871691912,0.932976384129213,82.65340482048236,151.9686336710459)" fill="none" stroke="#ffb400" filter="url(#bbburst-blur-3)"></use><use xlink:href="#bbburst-shape-5" width="16.522916477715295" opacity="0.7954298303863501" transform="matrix(0.8950330144623183,0.4459998912808114,-0.4459998912808114,0.8950330144623183,793.9910484397558,-259.15624763386086)" fill="#e06167"></use><use xlink:href="#bbburst-shape-2" width="18.957926954028174" opacity="0.7565605136514229" transform="matrix(0.9989586037228144,0.045625738878017436,-0.045625738878017436,0.9989586037228144,578.2434732658238,-321.80578688553743)" fill="#ffb400"></use><use xlink:href="#bbburst-shape-13" width="14.65397642515557" opacity="0.8471749758782026" transform="matrix(0.9857863744617477,0.16800364259611436,-0.16800364259611436,0.9857863744617477,751.791437684595,-287.6055945847617)" fill="none" stroke="#00a19d"></use><use xlink:href="#bbburst-shape-8" width="33.36037012282054" opacity="0.32723645375677235" transform="matrix(0.932099808287989,-0.36220152869568933,0.36220152869568933,0.932099808287989,-30.692098233442607,-308.85760920295377)" fill="none" stroke="#ffb400" filter="url(#bbburst-blur-2)"></use><use xlink:href="#bbburst-shape-14" width="16.327264303254406" opacity="0.8118551045439" transform="matrix(0.9988489261777125,-0.047966891431805644,0.047966891431805644,0.9988489261777125,751.9484622919822,-212.12452466391548)" fill="none" stroke="#46a421"></use><use xlink:href="#bbburst-shape-8" width="17.478951030127686" opacity="0.6612393388165738" transform="matrix(0.9902378421575221,-0.139388005076529,0.139388005076529,0.9902378421575221,711.5549433264101,-56.970056788484726)" fill="none" stroke="#052e65"></use><use xlink:href="#bbburst-shape-5" width="17.544090708255727" opacity="0.6969886268136809" transform="matrix(0.819446795779706,-0.5731552572264977,0.5731552572264977,0.819446795779706,261.084718468926,-304.56179844935605)" fill="#00a19d"></use><use xlink:href="#bbburst-shape-10" width="30.543769084093988" opacity="0.5804029104768262" transform="matrix(0.997878982393159,0.06509636317025272,-0.06509636317025272,0.997878982393159,432.53963765541624,-218.53752162329215)" fill="none" stroke="#ffb400" filter="url(#bbburst-blur-1)"></use><use xlink:href="#bbburst-shape-13" width="40.08261152195632" opacity="0.37628241479675784" transform="matrix(0.7401481824247366,0.6724438028960925,-0.6724438028960925,0.7401481824247366,902.8357030633007,295.55037770427384)" fill="none" stroke="#052e65" filter="url(#bbburst-blur-2)"></use><use xlink:href="#bbburst-shape-8" width="26.331152266850324" opacity="0.5333683378928981" transform="matrix(0.9942399995661848,0.10717659848415081,-0.10717659848415081,0.9942399995661848,776.9872503436819,64.52852561616481)" fill="none" stroke="#ffb400" filter="url(#bbburst-blur-1)"></use><use xlink:href="#bbburst-shape-14" width="14.980287452372728" opacity="0.8367463355038531" transform="matrix(0.730163815979504,-0.6832721286824519,0.6832721286824519,0.730163815979504,370.3189284800568,-224.67689307632162)" fill="none" stroke="#00a19d"></use><use xlink:href="#bbburst-shape-14" width="48.684284183366024" opacity="0.3643643989392171" transform="matrix(0.9500879302012959,0.31198225091472365,-0.31198225091472365,0.9500879302012959,292.47225655995396,-206.07055374344841)" fill="none" stroke="#052e65" filter="url(#bbburst-blur-2)"></use><use xlink:href="#bbburst-shape-1" width="44.51797373642119" opacity="0.0797197020373136" transform="matrix(0.9651560615899893,-0.26167494487646425,0.26167494487646425,0.9651560615899893,129.77116878618574,362.0314247460516)" fill="#00a19d" filter="url(#bbburst-blur-3)"></use></svg>