<svg xmlns="http://www.w3.org/2000/svg" version="1.1" xmlns:xlink="http://www.w3.org/1999/xlink"
  xmlns:svgjs="http://svgjs.dev/svgjs" viewBox="0 0 800 800" opacity="0.1">
  <defs>
    <filter id="bbburst-blur-1" x="-100%" y="-100%" width="400%" height="400%">
      <feGaussianBlur in="SourceGraphic" stdDeviation="1"></feGaussianBlur>
    </filter>
    <filter id="bbburst-blur-2" x="-100%" y="-100%" width="400%" height="400%">
      <feGaussianBlur in="SourceGraphic" stdDeviation="2"></feGaussianBlur>
    </filter>
    <filter id="bbburst-blur-3" x="-100%" y="-100%" width="400%" height="400%">
      <feGaussianBlur in="SourceGraphic" stdDeviation="4"></feGaussianBlur>
    </filter>
    <filter id="bbburst-blur-4" x="-100%" y="-100%" width="400%" height="400%">
      <feGaussianBlur in="SourceGraphic" stdDeviation="12"></feGaussianBlur>
    </filter>
    <symbol id="bbburst-shape-1" viewBox="0 0 194 167">
      <path d="m97 0 96.129 166.5H.871L97 0Z"></path>
    </symbol>
    <symbol id="bbburst-shape-2" viewBox="0 0 126 115">
      <path d="m63 0 62.77 43.877-23.976 70.996H24.206L.23 43.877 63 0Z"></path>
    </symbol>
    <symbol id="bbburst-shape-5" viewBox="0 0 145 145">
      <circle cx="72.5" cy="72.5" r="72.5"></circle>
    </symbol>
    <symbol id="bbburst-shape-8" viewBox="0 0 87 168">
      <path
        d="m12 12 31.2546 18.0749c16.4102 9.4902 20.014 31.6325 7.4603 45.8369L36.3296 92.1884c-12.5684 14.2206-8.9394 36.3916 7.5068 45.8636L75 156"
        stroke-width="14" stroke-linecap="round" stroke-linejoin="round"></path>
    </symbol>
    <symbol id="bbburst-shape-10" viewBox="0 0 145 145">
      <circle cx="72.5" cy="72.5" r="61.5" fill="none" stroke-width="22"></circle>
    </symbol>
    <symbol id="bbburst-shape-13" viewBox="0 0 159 159">
      <path stroke-width="22" d="M11 11h137v137H11z"></path>
    </symbol>
    <symbol id="bbburst-shape-14" viewBox="0 0 185 109">
      <path d="M168 16.5C168 58.1975 134.197 92 92.5 92 50.8025 92 17 58.1975 17 16.5" stroke-width="33"
        stroke-linecap="round"></path>
    </symbol>
  </defs>
  <use xlink:href="#bbburst-shape-13" width="0" opacity="0"
    transform="matrix(0.7342308598696791,-0.6788998780490623,0.6788998780490623,0.7342308598696791,-32.843893664539934,75.10118694526096)"
    fill="none" stroke="#ffb400"></use>
  <use xlink:href="#bbburst-shape-5" width="20.11381638153376" opacity="0.704934920802309"
    transform="matrix(0.792363575191382,-0.610049149421529,0.610049149421529,0.792363575191382,12.680726646844136,-180.37378859150192)"
    fill="#ffb400"></use>
  <use xlink:href="#bbburst-shape-2" width="55.3374377554903" opacity="0.26757372182866834"
    transform="matrix(0.8987440636308343,-0.43847361162142345,0.43847361162142345,0.8987440636308343,367.6198004948679,115.23767205908518)"
    fill="#46a421" filter="url(#bbburst-blur-2)"></use>
  <use xlink:href="#bbburst-shape-14" width="15.469685575026741" opacity="0.7927379683216011"
    transform="matrix(0.9990226166032097,0.04420194017547491,-0.04420194017547491,0.9990226166032097,209.63177011030865,-344.3804068415288)"
    fill="none" stroke="#052e65"></use>
  <use xlink:href="#bbburst-shape-1" width="12.456513261208924" opacity="0.8847391300505019"
    transform="matrix(0.9468821950264591,-0.3215806411180166,0.3215806411180166,0.9468821950264591,-66.23804786716906,-283.87992441676903)"
    fill="#ffb400"></use>
  <use xlink:href="#bbburst-shape-1" width="36.957077345613754" opacity="0.4493026056475563"
    transform="matrix(0.9889762005743794,-0.14807455790062254,0.14807455790062254,0.9889762005743794,471.7470567300105,-352.83333898567815)"
    fill="#e06167" filter="url(#bbburst-blur-2)"></use>
  <use xlink:href="#bbburst-shape-5" width="12.35395523623499" opacity="0.8189167556795068"
    transform="matrix(0.8353878690138655,-0.5496609030160984,0.5496609030160984,0.8353878690138655,-141.2655427719228,-170.2121742663319)"
    fill="#ffb400"></use>
  <use xlink:href="#bbburst-shape-5" width="24.44844135185661" opacity="0.555859417797633"
    transform="matrix(0.88579887322196,0.46406934417035783,-0.46406934417035783,0.88579887322196,199.27673622035363,83.47315829843524)"
    fill="#46a421" filter="url(#bbburst-blur-1)"></use>
  <use xlink:href="#bbburst-shape-2" width="8.857206213599381" opacity="0.9574628020862136"
    transform="matrix(0.7689639195828198,-0.6392921791949489,0.6392921791949489,0.7689639195828198,-230.1687460411533,-273.58575421935785)"
    fill="#052e65"></use>
  <use xlink:href="#bbburst-shape-5" width="56.43971799763225" opacity="0.19969664265879894"
    transform="matrix(0.9591735724505986,0.28281806503891554,-0.28281806503891554,0.9591735724505986,806.9776912201969,-44.14164557992501)"
    fill="#ffb400" filter="url(#bbburst-blur-3)"></use>
  <use xlink:href="#bbburst-shape-2" width="28.736966275870415" opacity="0.4776087260010107"
    transform="matrix(0.7576071170289398,-0.6527108519299326,0.6527108519299326,0.7576071170289398,-103.5773213299882,200.85618080340436)"
    fill="#ffb400" filter="url(#bbburst-blur-1)"></use>
  <use xlink:href="#bbburst-shape-1" width="38.16307554487048" opacity="0.3107591096521132"
    transform="matrix(0.8360313702329708,-0.5486816453886364,0.5486816453886364,0.8360313702329708,-61.13159954295298,342.9446251933168)"
    fill="#00a19d" filter="url(#bbburst-blur-2)"></use>
  <use xlink:href="#bbburst-shape-5" width="18.811797479359406" opacity="0.7727372520624818"
    transform="matrix(0.7553189783221659,0.6553573383936121,-0.6553573383936121,0.7553189783221659,480.95100464152216,-283.5554454915083)"
    fill="#052e65"></use>
  <use xlink:href="#bbburst-shape-14" width="27.271182010993215" opacity="0.5539871155047795"
    transform="matrix(0.9427402635355999,-0.3335278032021132,0.3335278032021132,0.9427402635355999,-3.340802708389475,49.983123372244506)"
    fill="none" stroke="#00a19d" filter="url(#bbburst-blur-1)"></use>
  <use xlink:href="#bbburst-shape-10" width="38.66321197568892" opacity="0.4009828797355668"
    transform="matrix(0.9989756183544404,0.04525167326589639,-0.04525167326589639,0.9989756183544404,462.35555171702487,-21.087327604986854)"
    fill="none" stroke="#e06167" filter="url(#bbburst-blur-2)"></use>
  <use xlink:href="#bbburst-shape-14" width="17.914648332224875" opacity="0.7729983352976697"
    transform="matrix(0.913031307325298,-0.4078894848410009,0.4078894848410009,0.913031307325298,-84.54435407772154,-151.77742657273274)"
    fill="none" stroke="#e06167"></use>
  <use xlink:href="#bbburst-shape-2" width="28.20450365080545" opacity="0.6938097760834991"
    transform="matrix(0.841103005933434,-0.5408749702193121,0.5408749702193121,0.841103005933434,64.64380089607027,-239.3994323776932)"
    fill="#ffb400"></use>
  <use xlink:href="#bbburst-shape-5" width="36.07877089119551" opacity="0.5330143115822856"
    transform="matrix(0.997113198524767,0.07592937065265802,-0.07592937065265802,0.997113198524767,477.76937500162103,-361.5823597150013)"
    fill="#ffb400" filter="url(#bbburst-blur-1)"></use>
  <use xlink:href="#bbburst-shape-5" width="43.85565671403435" opacity="0.2859874249772275"
    transform="matrix(0.9960259267049922,0.08906375992210018,-0.08906375992210018,0.9960259267049922,341.71928519346875,233.88654659226916)"
    fill="#ffb400" filter="url(#bbburst-blur-2)"></use>
  <use xlink:href="#bbburst-shape-2" width="41.797736879731985" opacity="0.3963643721182257"
    transform="matrix(0.757655340339979,0.6526548745350107,-0.6526548745350107,0.757655340339979,560.7746091630868,197.89889055881258)"
    fill="#ffb400" filter="url(#bbburst-blur-2)"></use>
  <use xlink:href="#bbburst-shape-2" width="15.440447968884868" opacity="0.7498635326200046"
    transform="matrix(0.9679715054815821,0.2510600816054189,-0.2510600816054189,0.9679715054815821,303.2158587176338,-253.63439181467345)"
    fill="#46a421"></use>
  <use xlink:href="#bbburst-shape-14" width="30.44419677644038" opacity="0.3822331104022184"
    transform="matrix(0.9119792855621595,0.4102362523053431,-0.4102362523053431,0.9119792855621595,201.67669318097697,244.61922568857534)"
    fill="none" stroke="#e06167" filter="url(#bbburst-blur-2)"></use>
  <use xlink:href="#bbburst-shape-1" width="23.86135142889854" opacity="0.636783103693129"
    transform="matrix(0.8679273320848446,0.4966911980497379,-0.4966911980497379,0.8679273320848446,275.9937296979427,-0.5968376191177072)"
    fill="#00a19d" filter="url(#bbburst-blur-1)"></use>
  <use xlink:href="#bbburst-shape-5" width="8.951523155712167" opacity="0.9221301082586066"
    transform="matrix(0.9197959876394225,0.3923969178299178,-0.3923969178299178,0.9197959876394225,164.5456711674064,-292.68932231617646)"
    fill="#052e65"></use>
  <use xlink:href="#bbburst-shape-13" width="19.588808720573127" opacity="0.818421973166819"
    transform="matrix(0.9913160044973408,0.13150125180935776,-0.13150125180935776,0.9913160044973408,167.51395446514303,-265.75477893083996)"
    fill="none" stroke="#00a19d"></use>
  <use xlink:href="#bbburst-shape-14" width="41.562870766154305" opacity="0.5638025202404862"
    transform="matrix(0.8999775039395477,-0.4359363398510629,0.4359363398510629,0.8999775039395477,174.74856597638401,-116.38091220297326)"
    fill="none" stroke="#ffb400" filter="url(#bbburst-blur-1)"></use>
  <use xlink:href="#bbburst-shape-13" width="29.668223167935132" opacity="0.6318477634985152"
    transform="matrix(0.89005303032082,-0.4558569986483981,0.4558569986483981,0.89005303032082,161.68952991123152,-260.2708278974178)"
    fill="none" stroke="#00a19d" filter="url(#bbburst-blur-1)"></use>
  <use xlink:href="#bbburst-shape-5" width="56.34447648197421" opacity="0.15780209092881992"
    transform="matrix(0.9539090196748568,-0.30009595495933256,0.30009595495933256,0.9539090196748568,259.6439004550156,364.4607666710925)"
    fill="#ffb400" filter="url(#bbburst-blur-3)"></use>
  <use xlink:href="#bbburst-shape-14" width="44.781216003446744" opacity="0.21163103764605629"
    transform="matrix(0.7601167742598072,-0.6497864953112409,0.6497864953112409,0.7601167742598072,-27.175127019080406,458.32225104280207)"
    fill="none" stroke="#ffb400" filter="url(#bbburst-blur-3)"></use>
  <use xlink:href="#bbburst-shape-14" width="6.069480121682222" opacity="0.9801179469834312"
    transform="matrix(0.9838574851151877,0.17895376213653147,-0.17895376213653147,0.9838574851151877,84.59607537826012,-382.2780502416959)"
    fill="none" stroke="#ffb400"></use>
  <use xlink:href="#bbburst-shape-13" width="8.768375896369404" opacity="0.9202190420744796"
    transform="matrix(0.7891182054349133,0.614241367746574,-0.614241367746574,0.7891182054349133,285.39263530050613,-251.2389362705922)"
    fill="none" stroke="#052e65"></use>
  <use xlink:href="#bbburst-shape-13" width="8.142448507977875" opacity="0.9046409421535226"
    transform="matrix(0.9615679122689906,0.2745672050603544,-0.2745672050603544,0.9615679122689906,140.13097811815686,-296.7370137251111)"
    fill="none" stroke="#052e65"></use>
  <use xlink:href="#bbburst-shape-5" width="15.772915346845721" opacity="0.8125762442016431"
    transform="matrix(0.8283346835173041,-0.5602335692211665,0.5602335692211665,0.8283346835173041,-217.28885331697998,-139.96700759285164)"
    fill="#ffb400"></use>
  <use xlink:href="#bbburst-shape-10" width="28.493592416081817" opacity="0.585467792745552"
    transform="matrix(0.8834970285550415,-0.4684367625778449,0.4684367625778449,0.8834970285550415,-124.03705329393799,60.79472585195646)"
    fill="none" stroke="#ffb400" filter="url(#bbburst-blur-1)"></use>
  <use xlink:href="#bbburst-shape-14" width="12.385804254469859" opacity="0.820919123646139"
    transform="matrix(0.7335194919171907,0.6796684154626772,-0.6796684154626772,0.7335194919171907,421.6466006532745,-206.76843144961555)"
    fill="none" stroke="#ffb400"></use>
  <use xlink:href="#bbburst-shape-5" width="14.446292709947398" opacity="0.7805020227411499"
    transform="matrix(0.9283194913801622,0.3717834341705892,-0.3717834341705892,0.9283194913801622,179.67990290408358,-157.77220146858434)"
    fill="#00a19d"></use>
  <use xlink:href="#bbburst-shape-2" width="12.421074066101465" opacity="0.7596358457750177"
    transform="matrix(0.9998854271850016,-0.015137123341864794,0.015137123341864794,0.9998854271850016,5.415591746226832,-160.14087365421113)"
    fill="#ffb400"></use>
  <use xlink:href="#bbburst-shape-2" width="19.901835272088224" opacity="0.7911014734940072"
    transform="matrix(0.9268354398673508,0.3754677980944496,-0.3754677980944496,0.9268354398673508,306.8344707647629,-247.47914199972348)"
    fill="#e06167"></use>
  <use xlink:href="#bbburst-shape-10" width="16.934794133800438" opacity="0.725961844977409"
    transform="matrix(0.8582951455162066,0.5131563535447202,-0.5131563535447202,0.8582951455162066,314.2108540541392,-99.4882422628103)"
    fill="none" stroke="#46a421"></use>
  <use xlink:href="#bbburst-shape-13" width="3.6421837059004716" opacity="0.9905619377805575"
    transform="matrix(0.7649129383966494,-0.6441336791950905,0.6441336791950905,0.7649129383966494,-254.11483684695997,-296.74502378909295)"
    fill="none" stroke="#e06167"></use>
  <use xlink:href="#bbburst-shape-10" width="28.10417129725348" opacity="0.5112663047123087"
    transform="matrix(0.999953885662713,-0.009603465418371752,0.009603465418371752,0.999953885662713,65.69309829128076,81.68638007390348)"
    fill="none" stroke="#e06167" filter="url(#bbburst-blur-1)"></use>
  <use xlink:href="#bbburst-shape-8" width="11.119179038980818" opacity="0.8513352996741852"
    transform="matrix(0.9730098125714814,-0.230763742038498,0.230763742038498,0.9730098125714814,-44.04280167014364,-249.28301172315884)"
    fill="none" stroke="#e06167"></use>
  <use xlink:href="#bbburst-shape-10" width="24.410071477794407" opacity="0.5604151041119676"
    transform="matrix(0.9131431926263536,-0.4076389453427507,0.4076389453427507,0.9131431926263536,253.30241845026126,-257.929182675952)"
    fill="none" stroke="#ffb400" filter="url(#bbburst-blur-1)"></use>
  <use xlink:href="#bbburst-shape-14" width="9.521419341317523" opacity="0.9167417563985218"
    transform="matrix(0.7746972511869564,-0.6323323248129686,0.6323323248129686,0.7746972511869564,-174.4293495329576,-293.5244802956685)"
    fill="none" stroke="#00a19d"></use>
  <use xlink:href="#bbburst-shape-10" width="27.56499046254011" opacity="0.6767268258303945"
    transform="matrix(0.9825809530900098,0.18583506295833419,-0.18583506295833419,0.9825809530900098,280.7645610613578,-158.7024484113228)"
    fill="none" stroke="#ffb400"></use>
  <use xlink:href="#bbburst-shape-2" width="51.3278051282441" opacity="0.07720809867229539"
    transform="matrix(0.7631074857988152,-0.6462715877383216,0.6462715877383216,0.7631074857988152,288.10523383532825,440.0486959333946)"
    fill="#ffb400" filter="url(#bbburst-blur-3)"></use>
  <use xlink:href="#bbburst-shape-14" width="32.65962847894822" opacity="0.30274204391816895"
    transform="matrix(0.9744916515572569,0.22442375329988973,-0.22442375329988973,0.9744916515572569,123.31648297390097,302.0823617150189)"
    fill="none" stroke="#052e65" filter="url(#bbburst-blur-2)"></use>
  <use xlink:href="#bbburst-shape-14" width="11.863667234860637" opacity="0.8785174312077387"
    transform="matrix(0.9232907195255226,-0.38410187091192727,0.38410187091192727,0.9232907195255226,-115.93619388251184,-253.47168579157943)"
    fill="none" stroke="#ffb400"></use>
  <use xlink:href="#bbburst-shape-2" width="43.575322129614804" opacity="0.4163119367442748"
    transform="matrix(0.8597927411963132,0.5106431652202246,-0.5106431652202246,0.8597927411963132,311.5482817350175,214.89440540357003)"
    fill="#ffb400" filter="url(#bbburst-blur-2)"></use>
  <use xlink:href="#bbburst-shape-2" width="24.594115293175737" opacity="0.5777545905012496"
    transform="matrix(0.9064902664319099,0.42222671263694944,-0.42222671263694944,0.9064902664319099,370.7446450354212,-3.1957674893035914)"
    fill="#46a421" filter="url(#bbburst-blur-1)"></use>
  <use xlink:href="#bbburst-shape-10" width="18.072660438711132" opacity="0.7532693758320519"
    transform="matrix(0.9569744976790442,0.2901720365437392,-0.2901720365437392,0.9569744976790442,281.5276253230287,-210.58920270559076)"
    fill="none" stroke="#052e65"></use>
  <use xlink:href="#bbburst-shape-2" width="18.53827769920646" opacity="0.6803991590143839"
    transform="matrix(0.9764347264926573,0.21581293960096448,-0.21581293960096448,0.9764347264926573,100.18780378659082,-73.78690760262901)"
    fill="#052e65"></use>
  <use xlink:href="#bbburst-shape-8" width="47.30661738880423" opacity="0.3587992783529236"
    transform="matrix(0.9587467186424149,0.28426172709740966,-0.28426172709740966,0.9587467186424149,728.5422091217611,-321.57158689464046)"
    fill="none" stroke="#00a19d" filter="url(#bbburst-blur-2)"></use>
  <use xlink:href="#bbburst-shape-10" width="58.761329716711515" opacity="0.3278002127145502"
    transform="matrix(0.9703081077895501,-0.24187223064639463,0.24187223064639463,0.9703081077895501,460.0660548714287,-50.48810728979703)"
    fill="none" stroke="#ffb400" filter="url(#bbburst-blur-2)"></use>
  <use xlink:href="#bbburst-shape-8" width="16.869956174075842" opacity="0.8196763780336904"
    transform="matrix(0.9553531293444547,0.295466407992106,-0.295466407992106,0.9553531293444547,289.6078020275179,-367.20748359481456)"
    fill="none" stroke="#ffb400"></use>
  <use xlink:href="#bbburst-shape-10" width="20.37581346984526" opacity="0.7281607068982726"
    transform="matrix(0.8923443682810028,-0.4513552131051308,0.4513552131051308,0.8923443682810028,80.48737335348079,-321.8192805619249)"
    fill="none" stroke="#46a421"></use>
  <use xlink:href="#bbburst-shape-14" width="48.564397152383314" opacity="0.11191786402279091"
    transform="matrix(0.999679545554637,0.025314150186691628,-0.025314150186691628,0.999679545554637,721.7385998064759,96.7282068980087)"
    fill="none" stroke="#00a19d" filter="url(#bbburst-blur-3)"></use>
  <use xlink:href="#bbburst-shape-14" width="15.60221634505157" opacity="0.8509380076915414"
    transform="matrix(0.7850799779878026,0.6193944043682275,-0.6193944043682275,0.7850799779878026,327.39831273423994,-196.93925073045534)"
    fill="none" stroke="#052e65"></use>
  <use xlink:href="#bbburst-shape-5" width="28.20464577002756" opacity="0.6092395869810753"
    transform="matrix(0.9407551651139718,0.3390865955937856,-0.3390865955937856,0.9407551651139718,511.92637461994093,-350.4598206313797)"
    fill="#00a19d" filter="url(#bbburst-blur-1)"></use>
  <use xlink:href="#bbburst-shape-8" width="24.817328138709623" opacity="0.23146532568776612"
    transform="matrix(0.9328041775658384,0.36038363769144643,-0.36038363769144643,0.9328041775658384,224.25079315521538,385.45413163805216)"
    fill="none" stroke="#00a19d" filter="url(#bbburst-blur-3)"></use>
  <use xlink:href="#bbburst-shape-10" width="16.700575020481786" opacity="0.8593854601567368"
    transform="matrix(0.9191372180556349,0.3939375259923181,-0.3939375259923181,0.9191372180556349,258.08538400566465,-281.1203428443956)"
    fill="none" stroke="#ffb400"></use>
  <use xlink:href="#bbburst-shape-2" width="47.32938496436225" opacity="0.3854415272826953"
    transform="matrix(0.853750281542498,-0.5206826833745343,0.5206826833745343,0.853750281542498,-0.2965443364462601,241.47463283571204)"
    fill="#00a19d" filter="url(#bbburst-blur-2)"></use>
  <use xlink:href="#bbburst-shape-13" width="7.752255932952021" opacity="0.9371585872709318"
    transform="matrix(0.7574102067665592,0.6529393376768151,-0.6529393376768151,0.7574102067665592,303.3978326172345,-261.7936382528381)"
    fill="none" stroke="#46a421"></use>
  <use xlink:href="#bbburst-shape-10" width="11.739633008072904" opacity="0.9010454505181135"
    transform="matrix(0.8601187435660141,-0.5100938609377899,0.5100938609377899,0.8601187435660141,-134.9637234286206,-275.49535081535373)"
    fill="none" stroke="#ffb400"></use>
  <use xlink:href="#bbburst-shape-2" width="13.976172624259586" opacity="0.8626735904271581"
    transform="matrix(0.9040099534789048,0.4275114080478654,-0.4275114080478654,0.9040099534789048,289.80381741018937,-307.9844522029779)"
    fill="#ffb400"></use>
  <use xlink:href="#bbburst-shape-10" width="16.225095220458005" opacity="0.80618806785443"
    transform="matrix(0.822992470631629,0.5680522804140895,-0.5680522804140895,0.822992470631629,275.3864287203519,-147.91448353027099)"
    fill="none" stroke="#ffb400"></use>
  <use xlink:href="#bbburst-shape-13" width="49.55769090234533" opacity="0.327192230866016"
    transform="matrix(0.9792335910496357,-0.20273523166937435,0.20273523166937435,0.9792335910496357,537.0384993118323,-186.6785169336859)"
    fill="none" stroke="#ffb400" filter="url(#bbburst-blur-2)"></use>
  <use xlink:href="#bbburst-shape-13" width="37.73257040180116" opacity="0.5960356249227743"
    transform="matrix(0.975422610832454,-0.2203423025131558,0.2203423025131558,0.975422610832454,190.8806706057596,-112.646976044599)"
    fill="none" stroke="#46a421" filter="url(#bbburst-blur-1)"></use>
  <use xlink:href="#bbburst-shape-14" width="11.436511416539942" opacity="0.8908705530538911"
    transform="matrix(0.8733811555864703,-0.4870373261531826,0.4870373261531826,0.8733811555864703,-187.01814909018748,-238.17583038733449)"
    fill="none" stroke="#00a19d"></use>
  <use xlink:href="#bbburst-shape-14" width="11.879270023179137" opacity="0.9228322495643437"
    transform="matrix(0.9816159462607232,0.1908667966060751,-0.1908667966060751,0.9816159462607232,138.68144333792773,-357.59868083434736)"
    fill="none" stroke="#052e65"></use>
  <use xlink:href="#bbburst-shape-5" width="35.941477512083196" opacity="0.504221496930541"
    transform="matrix(0.8773109081339039,0.4799224629763279,-0.4799224629763279,0.8773109081339039,545.0204205845234,-28.23326373108796)"
    fill="#46a421" filter="url(#bbburst-blur-1)"></use>
  <use xlink:href="#bbburst-shape-13" width="28.16744985344844" opacity="0.6150456363567278"
    transform="matrix(0.9764816126379134,-0.21560069614929345,0.21560069614929345,0.9764816126379134,47.92320322212073,-32.15397772428258)"
    fill="none" stroke="#ffb400" filter="url(#bbburst-blur-1)"></use>
  <use xlink:href="#bbburst-shape-10" width="38.07257045256944" opacity="0.5301126668814578"
    transform="matrix(0.7202170442913122,0.6937488083681917,-0.6937488083681917,0.7202170442913122,698.7018352653099,-123.40237858084046)"
    fill="none" stroke="#052e65" filter="url(#bbburst-blur-1)"></use>
  <use xlink:href="#bbburst-shape-10" width="13.885889666686422" opacity="0.8571593646373484"
    transform="matrix(0.9255791553642957,0.37855412711409847,-0.37855412711409847,0.9255791553642957,286.65277238576095,-354.5122902181397)"
    fill="none" stroke="#ffb400"></use>
  <use xlink:href="#bbburst-shape-1" width="0" opacity="0"
    transform="matrix(0.9915449029734433,0.1297640373423425,-0.1297640373423425,0.9915449029734433,11.623000501679371,-11.883224508568418)"
    fill="#ffb400"></use>
  <use xlink:href="#bbburst-shape-2" width="35.339869466822314" opacity="0.46454596782874635"
    transform="matrix(0.9996479667185093,-0.026531917298796105,0.026531917298796105,0.9996479667185093,6.866572499197019,134.9270056739453)"
    fill="#052e65" filter="url(#bbburst-blur-1)"></use>
  <use xlink:href="#bbburst-shape-8" width="33.12468535881137" opacity="0.4973382070014165"
    transform="matrix(0.9249099369312037,0.38018628140152144,-0.38018628140152144,0.9249099369312037,370.675840646535,68.65531490021891)"
    fill="none" stroke="#052e65" filter="url(#bbburst-blur-1)"></use>
  <use xlink:href="#bbburst-shape-5" width="41.96106743152668" opacity="0.4184155549084331"
    transform="matrix(0.8131010146867483,-0.5821226158769132,0.5821226158769132,0.8131010146867483,289.3742030277724,-95.27777612759087)"
    fill="#052e65" filter="url(#bbburst-blur-2)"></use>
  <use xlink:href="#bbburst-shape-10" width="7.596588832437218" opacity="0.9652306465352141"
    transform="matrix(0.9472368587656956,0.3205344496239017,-0.3205344496239017,0.9472368587656956,157.86450976770175,-369.94180317546954)"
    fill="none" stroke="#ffb400"></use>
  <use xlink:href="#bbburst-shape-2" width="41.899368544620344" opacity="0.4933530837991502"
    transform="matrix(0.8511066371492721,-0.5249928496660285,0.5249928496660285,0.8511066371492721,85.40025885844537,68.80280525697617)"
    fill="#ffb400" filter="url(#bbburst-blur-1)"></use>
  <use xlink:href="#bbburst-shape-13" width="15.011258747176807" opacity="0.8317883719336128"
    transform="matrix(0.8676149198903527,-0.4972367150398862,0.4972367150398862,0.8676149198903527,-46.023747898393594,-289.53445883645503)"
    fill="none" stroke="#ffb400"></use>
  <use xlink:href="#bbburst-shape-13" width="38.900290124789926" opacity="0.22273898496832978"
    transform="matrix(0.9865476826691341,0.1634737588121152,-0.1634737588121152,0.9865476826691341,795.0513760095278,-189.5732918607625)"
    fill="none" stroke="#052e65" filter="url(#bbburst-blur-3)"></use>
  <use xlink:href="#bbburst-shape-8" width="10.351851702263668" opacity="0.9440056861596139"
    transform="matrix(0.979475985758457,0.20156089234397379,-0.20156089234397379,0.979475985758457,129.97282625719328,-379.64184928706175)"
    fill="none" stroke="#00a19d"></use>
  <use xlink:href="#bbburst-shape-5" width="21.21615315492053" opacity="0.687738982573519"
    transform="matrix(0.82975557429942,-0.558126945164843,0.558126945164843,0.82975557429942,-163.4029971691263,-21.360269353339902)"
    fill="#ffb400"></use>
  <use xlink:href="#bbburst-shape-13" width="7.467361987722137" opacity="0.9678560386009244"
    transform="matrix(0.897580250561953,-0.44085110162178526,0.44085110162178526,0.897580250561953,-171.28636698057304,-326.36056011475654)"
    fill="none" stroke="#46a421"></use>
  <use xlink:href="#bbburst-shape-14" width="22.022650210409964" opacity="0.7057532451619044"
    transform="matrix(0.9384370221997945,0.34545036599312257,-0.34545036599312257,0.9384370221997945,359.63044724306764,-197.8976793910894)"
    fill="none" stroke="#e06167"></use>
  <use xlink:href="#bbburst-shape-13" width="27.629302381223674" opacity="0.6292738385129852"
    transform="matrix(0.8766888399228742,-0.4810578738100907,0.4810578738100907,0.8766888399228742,-177.47906686721507,25.707721382901525)"
    fill="none" stroke="#052e65" filter="url(#bbburst-blur-1)"></use>
  <use xlink:href="#bbburst-shape-2" width="16.333243540600314" opacity="0.7353147702614902"
    transform="matrix(0.9999444745335826,-0.010537924357162885,0.010537924357162885,0.9999444745335826,56.573619302333825,-144.33801274787544)"
    fill="#e06167"></use>
  <use xlink:href="#bbburst-shape-1" width="39.83855756578531" opacity="0.4644409174851043"
    transform="matrix(0.9796571289609648,0.2006786228674086,-0.2006786228674086,0.9796571289609648,520.8301444649376,-121.68023688993947)"
    fill="#46a421" filter="url(#bbburst-blur-1)"></use>
  <use xlink:href="#bbburst-shape-8" width="41.281403363672396" opacity="0.364763358200885"
    transform="matrix(0.8438953812295301,-0.5365077683868762,0.5365077683868762,0.8438953812295301,183.774209172069,153.765005740881)"
    fill="none" stroke="#00a19d" filter="url(#bbburst-blur-2)"></use>
  <use xlink:href="#bbburst-shape-10" width="12.737324785950495" opacity="0.8881243785023275"
    transform="matrix(0.9285554851000072,-0.37119363018603974,0.37119363018603974,0.9285554851000072,-43.86830478747534,-351.7126696236646)"
    fill="none" stroke="#ffb400"></use>
  <use xlink:href="#bbburst-shape-1" width="25.342123174089693" opacity="0.6484019714784053"
    transform="matrix(0.9096382413254358,-0.4154013359612223,0.4154013359612223,0.9096382413254358,112.95654892540182,-160.68422097050507)"
    fill="#052e65" filter="url(#bbburst-blur-1)"></use>
  <use xlink:href="#bbburst-shape-13" width="21.572317001579208" opacity="0.7841147473743835"
    transform="matrix(0.8253081021802936,-0.5646826865378131,0.5646826865378131,0.8253081021802936,-112.69008016620023,-145.98271593896183)"
    fill="none" stroke="#052e65"></use>
  <use xlink:href="#bbburst-shape-10" width="13.709623284212332" opacity="0.8352465825929185"
    transform="matrix(0.9615367326426032,0.27467637644869813,-0.27467637644869813,0.9615367326426032,137.32016616157205,-225.29917188833434)"
    fill="none" stroke="#ffb400"></use>
  <use xlink:href="#bbburst-shape-10" width="58.1993882467584" opacity="0.23650079886459163"
    transform="matrix(0.9929644768675695,0.1184126162159845,-0.1184126162159845,0.9929644768675695,492.31270710843944,198.03712069349876)"
    fill="none" stroke="#e06167" filter="url(#bbburst-blur-3)"></use>
  <use xlink:href="#bbburst-shape-1" width="45.82207670777367" opacity="0.25358760696110016"
    transform="matrix(0.7439648572662614,0.6682187449875912,-0.6682187449875912,0.7439648572662614,993.5073456631706,-244.8064542939626)"
    fill="#00a19d" filter="url(#bbburst-blur-2)"></use>
  <use xlink:href="#bbburst-shape-2" width="23.252011759297446" opacity="0.6760289066594649"
    transform="matrix(0.8700286455450368,-0.49300117234248925,0.49300117234248925,0.8700286455450368,-86.43309136009535,-41.69330416078435)"
    fill="#46a421"></use>
  <use xlink:href="#bbburst-shape-10" width="60.967425579666255" opacity="-0.015942572882670536"
    transform="matrix(0.8263986105693661,0.5630855498492402,-0.5630855498492402,0.8263986105693661,929.2682584126737,359.6433901749578)"
    fill="none" stroke="#052e65" filter="url(#bbburst-blur-3)"></use>
  <use xlink:href="#bbburst-shape-13" width="15.83504368436908" opacity="0.7648116823861764"
    transform="matrix(0.9221687305275708,0.38678783905025826,-0.38678783905025826,0.9221687305275708,365.12285172319537,-282.9560596264218)"
    fill="none" stroke="#46a421"></use>
  <use xlink:href="#bbburst-shape-14" width="8.063509698215436" opacity="0.9449911494402705"
    transform="matrix(0.8810362503032318,-0.47304875610408387,0.47304875610408387,0.8810362503032318,-177.8758435503756,-297.54258247060886)"
    fill="none" stroke="#e06167"></use>
  <use xlink:href="#bbburst-shape-13" width="11.47815351867424" opacity="0.8930649344950002"
    transform="matrix(0.8661049311316753,0.49986222928862706,-0.49986222928862706,0.8661049311316753,290.71750105255967,-301.68370081901395)"
    fill="none" stroke="#ffb400"></use>
  <use xlink:href="#bbburst-shape-1" width="13.431414526304902" opacity="0.8587609308075137"
    transform="matrix(0.9495333458073958,-0.3136661046396511,0.3136661046396511,0.9495333458073958,-117.79977735644552,-237.1507154729507)"
    fill="#ffb400"></use>
  <use xlink:href="#bbburst-shape-13" width="37.467490509284595" opacity="0.45794237968259977"
    transform="matrix(0.9595695749327867,0.28147154538835906,-0.28147154538835906,0.9595695749327867,621.9918104331005,-263.8119953224213)"
    fill="none" stroke="#ffb400" filter="url(#bbburst-blur-1)"></use>
  <use xlink:href="#bbburst-shape-1" width="28.319531183812582" opacity="0.6022674377291546"
    transform="matrix(0.9953150954610188,0.09668433558453537,-0.09668433558453537,0.9953150954610188,272.2120552764894,-88.22255744218302)"
    fill="#ffb400" filter="url(#bbburst-blur-1)"></use>
  <use xlink:href="#bbburst-shape-1" width="24.05992316079119" opacity="0.6743180485288927"
    transform="matrix(0.9585109921895387,0.2850555697611012,-0.2850555697611012,0.9585109921895387,426.68300201103,-355.7748531261116)"
    fill="#46a421"></use>
  <use xlink:href="#bbburst-shape-13" width="65.95416845448037" opacity="0.13760942204019477"
    transform="matrix(0.8162310099903349,-0.5777256600932295,0.5777256600932295,0.8162310099903349,374.31091761295954,278.9817823959049)"
    fill="none" stroke="#052e65" filter="url(#bbburst-blur-3)"></use>
  <use xlink:href="#bbburst-shape-14" width="17.43215832452641" opacity="0.7302106984244877"
    transform="matrix(0.9809744464678438,0.19413689854612262,-0.19413689854612262,0.9809744464678438,224.32221846422246,-173.39545713962713)"
    fill="none" stroke="#052e65"></use>
  <use xlink:href="#bbburst-shape-1" width="29.224313108888268" opacity="0.6220924549902334"
    transform="matrix(0.7273945990057221,0.686219423608298,-0.686219423608298,0.7273945990057221,609.2665128707451,-147.6934711002018)"
    fill="#052e65" filter="url(#bbburst-blur-1)"></use>
  <use xlink:href="#bbburst-shape-10" width="15.258459416207504" opacity="0.7227705259166151"
    transform="matrix(0.9382127749646031,-0.3460589384674509,0.3460589384674509,0.9382127749646031,-120.54412627400154,-96.5483725082454)"
    fill="none" stroke="#ffb400"></use>
  <use xlink:href="#bbburst-shape-1" width="28.345513789715714" opacity="0.6654450552919438"
    transform="matrix(0.8540908048763207,0.5201239246811462,-0.5201239246811462,0.8540908048763207,371.54824167849245,-64.2246192049056)"
    fill="#46a421"></use>
</svg>