<svg xmlns="http://www.w3.org/2000/svg" version="1.1" xmlns:xlink="http://www.w3.org/1999/xlink"
  xmlns:svgjs="http://svgjs.dev/svgjs" viewBox="0 0 800 800">
  <defs>
    <linearGradient x1="50%" y1="0%" x2="50%" y2="100%" id="ffflurry-grad" gradientTransform="rotate(270)">
      <stop stop-color="hsl(0, 0%, 100%)" stop-opacity="1" offset="0%"></stop>
      <stop stop-color="#d1a45a" stop-opacity="1" offset="45%"></stop>
      <stop stop-color="" stop-opacity="1" offset="100%"></stop>
    </linearGradient>
    <defs>
      <style>
        .abcdef {
          opacity: 0.2;
        }
      </style>
    </defs>
  </defs>
  <rect width="100%" height="100%" fill="hsl(0, 0%, 100%)"></rect>
  <g class="abcdef" fill="url(#ffflurry-grad)">
    <rect width="210" height="3" x="633" y="357.5" rx="1.5" transform="rotate(45, 738, 359)" opacity="0.23"></rect>
    <rect width="150" height="3" x="85" y="777.5" rx="1.5" transform="rotate(45, 160, 779)" opacity="0.70"></rect>
    <rect width="68" height="3" x="365" y="762.5" rx="1.5" transform="rotate(45, 399, 764)" opacity="0.38"></rect>
    <rect width="169" height="3" x="654.5" y="702.5" rx="1.5" transform="rotate(45, 739, 704)" opacity="0.40"></rect>
    <rect width="839" height="3" x="315.5" y="74.5" rx="1.5" transform="rotate(45, 735, 76)" opacity="0.98"></rect>
    <rect width="185" height="3" x="11.5" y="636.5" rx="1.5" transform="rotate(45, 104, 638)" opacity="0.19"></rect>
    <rect width="200" height="3" x="-57" y="589.5" rx="1.5" transform="rotate(45, 43, 591)" opacity="0.91"></rect>
    <rect width="142" height="3" x="-45" y="745.5" rx="1.5" transform="rotate(45, 26, 747)" opacity="0.98"></rect>
    <rect width="55" height="3" x="86.5" y="232.5" rx="1.5" transform="rotate(45, 114, 234)" opacity="0.44"></rect>
    <rect width="318" height="3" x="-126" y="199.5" rx="1.5" transform="rotate(45, 33, 201)" opacity="0.71"></rect>
    <rect width="100" height="3" x="592" y="552.5" rx="1.5" transform="rotate(45, 642, 554)" opacity="0.60"></rect>
    <rect width="257" height="3" x="285.5" y="650.5" rx="1.5" transform="rotate(45, 414, 652)" opacity="0.70"></rect>
    <rect width="282" height="3" x="-106" y="71.5" rx="1.5" transform="rotate(45, 35, 73)" opacity="0.98"></rect>
    <rect width="341" height="3" x="432.5" y="376.5" rx="1.5" transform="rotate(45, 603, 378)" opacity="0.61"></rect>
    <rect width="163" height="3" x="351.5" y="282.5" rx="1.5" transform="rotate(45, 433, 284)" opacity="0.24"></rect>
    <rect width="170" height="3" x="92" y="677.5" rx="1.5" transform="rotate(45, 177, 679)" opacity="0.89"></rect>
    <rect width="125" height="3" x="426.5" y="736.5" rx="1.5" transform="rotate(45, 489, 738)" opacity="0.19"></rect>
    <rect width="121" height="3" x="231.5" y="620.5" rx="1.5" transform="rotate(45, 292, 622)" opacity="0.87"></rect>
    <rect width="517" height="3" x="88.5" y="692.5" rx="1.5" transform="rotate(45, 347, 694)" opacity="0.72"></rect>
    <rect width="390" height="3" x="252" y="575.5" rx="1.5" transform="rotate(45, 447, 577)" opacity="0.54"></rect>
    <rect width="155" height="3" x="109.5" y="136.5" rx="1.5" transform="rotate(45, 187, 138)" opacity="0.61"></rect>
    <rect width="88" height="3" x="51" y="148.5" rx="1.5" transform="rotate(45, 95, 150)" opacity="0.33"></rect>
    <rect width="113" height="3" x="26.5" y="724.5" rx="1.5" transform="rotate(45, 83, 726)" opacity="0.84"></rect>
    <rect width="212" height="3" x="169" y="432.5" rx="1.5" transform="rotate(45, 275, 434)" opacity="0.26"></rect>
    <rect width="309" height="3" x="440.5" y="627.5" rx="1.5" transform="rotate(45, 595, 629)" opacity="0.52"></rect>
    <rect width="653" height="3" x="-128.5" y="44.5" rx="1.5" transform="rotate(45, 198, 46)" opacity="0.87"></rect>
    <rect width="177" height="3" x="177.5" y="533.5" rx="1.5" transform="rotate(45, 266, 535)" opacity="0.08"></rect>
    <rect width="187" height="3" x="151.5" y="364.5" rx="1.5" transform="rotate(45, 245, 366)" opacity="0.64"></rect>
    <rect width="281" height="3" x="391.5" y="271.5" rx="1.5" transform="rotate(45, 532, 273)" opacity="0.56"></rect>
    <rect width="390" height="3" x="-18" y="496.5" rx="1.5" transform="rotate(45, 177, 498)" opacity="0.44"></rect>
    <rect width="129" height="3" x="216.5" y="206.5" rx="1.5" transform="rotate(45, 281, 208)" opacity="0.81"></rect>
    <rect width="381" height="3" x="19.5" y="748.5" rx="1.5" transform="rotate(45, 210, 750)" opacity="0.22"></rect>
    <rect width="150" height="3" x="421" y="41.5" rx="1.5" transform="rotate(45, 496, 43)" opacity="0.82"></rect>
    <rect width="663" height="3" x="322.5" y="183.5" rx="1.5" transform="rotate(45, 654, 185)" opacity="0.74"></rect>
    <rect width="244" height="3" x="471" y="752.5" rx="1.5" transform="rotate(45, 593, 754)" opacity="0.25"></rect>
    <rect width="371" height="3" x="-79.5" y="40.5" rx="1.5" transform="rotate(45, 106, 42)" opacity="0.29"></rect>
    <rect width="34" height="3" x="490" y="435.5" rx="1.5" transform="rotate(45, 507, 437)" opacity="0.17"></rect>
    <rect width="178" height="3" x="571" y="671.5" rx="1.5" transform="rotate(45, 660, 673)" opacity="0.09"></rect>
    <rect width="34" height="3" x="516" y="533.5" rx="1.5" transform="rotate(45, 533, 535)" opacity="0.28"></rect>
    <rect width="178" height="3" x="21" y="391.5" rx="1.5" transform="rotate(45, 110, 393)" opacity="0.30"></rect>
    <rect width="203" height="3" x="286.5" y="40.5" rx="1.5" transform="rotate(45, 388, 42)" opacity="0.44"></rect>
    <rect width="151" height="3" x="569.5" y="296.5" rx="1.5" transform="rotate(45, 645, 298)" opacity="0.33"></rect>
    <rect width="554" height="3" x="-131" y="319.5" rx="1.5" transform="rotate(45, 146, 321)" opacity="0.45"></rect>
    <rect width="574" height="3" x="123" y="135.5" rx="1.5" transform="rotate(45, 410, 137)" opacity="0.50"></rect>
    <rect width="236" height="3" x="-83" y="503.5" rx="1.5" transform="rotate(45, 35, 505)" opacity="0.77"></rect>
    <rect width="282" height="3" x="622" y="443.5" rx="1.5" transform="rotate(45, 763, 445)" opacity="0.30"></rect>
    <rect width="325" height="3" x="177.5" y="472.5" rx="1.5" transform="rotate(45, 340, 474)" opacity="0.36"></rect>
    <rect width="261" height="3" x="148.5" y="740.5" rx="1.5" transform="rotate(45, 279, 742)" opacity="0.47"></rect>
    <rect width="205" height="3" x="-19.5" y="778.5" rx="1.5" transform="rotate(45, 83, 780)" opacity="0.25"></rect>
    <rect width="217" height="3" x="410.5" y="659.5" rx="1.5" transform="rotate(45, 519, 661)" opacity="0.99"></rect>
    <rect width="422" height="3" x="497" y="555.5" rx="1.5" transform="rotate(45, 708, 557)" opacity="0.88"></rect>
    <rect width="276" height="3" x="322" y="373.5" rx="1.5" transform="rotate(45, 460, 375)" opacity="0.90"></rect>
    <rect width="573" height="3" x="150.5" y="480.5" rx="1.5" transform="rotate(45, 437, 482)" opacity="0.58"></rect>
    <rect width="432" height="3" x="376" y="499.5" rx="1.5" transform="rotate(45, 592, 501)" opacity="0.34"></rect>
    <rect width="225" height="3" x="74.5" y="224.5" rx="1.5" transform="rotate(45, 187, 226)" opacity="0.93"></rect>
    <rect width="288" height="3" x="-106" y="414.5" rx="1.5" transform="rotate(45, 38, 416)" opacity="0.92"></rect>
    <rect width="205" height="3" x="666.5" y="531.5" rx="1.5" transform="rotate(45, 769, 533)" opacity="0.27"></rect>
    <rect width="346" height="3" x="340" y="591.5" rx="1.5" transform="rotate(45, 513, 593)" opacity="0.59"></rect>
    <rect width="153" height="3" x="-45.5" y="666.5" rx="1.5" transform="rotate(45, 31, 668)" opacity="0.63"></rect>
    <rect width="723" height="3" x="174.5" y="140.5" rx="1.5" transform="rotate(45, 536, 142)" opacity="0.52"></rect>
    <rect width="82" height="3" x="95" y="719.5" rx="1.5" transform="rotate(45, 136, 721)" opacity="0.15"></rect>
    <rect width="319" height="3" x="-116.5" y="302.5" rx="1.5" transform="rotate(45, 43, 304)" opacity="0.92"></rect>
    <rect width="162" height="3" x="209" y="75.5" rx="1.5" transform="rotate(45, 290, 77)" opacity="0.57"></rect>
    <rect width="581" height="3" x="464.5" y="237.5" rx="1.5" transform="rotate(45, 755, 239)" opacity="0.09"></rect>
    <rect width="676" height="3" x="276" y="47.5" rx="1.5" transform="rotate(45, 614, 49)" opacity="0.15"></rect>
    <rect width="392" height="3" x="562" y="628.5" rx="1.5" transform="rotate(45, 758, 630)" opacity="0.16"></rect>
    <rect width="94" height="3" x="333" y="215.5" rx="1.5" transform="rotate(45, 380, 217)" opacity="0.75"></rect>
    <rect width="41" height="3" x="180.5" y="430.5" rx="1.5" transform="rotate(45, 201, 432)" opacity="0.38"></rect>
    <rect width="313" height="3" x="574.5" y="766.5" rx="1.5" transform="rotate(45, 731, 768)" opacity="0.14"></rect>
    <rect width="81" height="3" x="187.5" y="291.5" rx="1.5" transform="rotate(45, 228, 293)" opacity="0.25"></rect>
    <rect width="484" height="3" x="-132" y="522.5" rx="1.5" transform="rotate(45, 110, 524)" opacity="0.91"></rect>
    <rect width="586" height="3" x="79" y="552.5" rx="1.5" transform="rotate(45, 372, 554)" opacity="0.53"></rect>
    <rect width="49" height="3" x="654.5" y="453.5" rx="1.5" transform="rotate(45, 679, 455)" opacity="0.18"></rect>
    <rect width="214" height="3" x="471" y="439.5" rx="1.5" transform="rotate(45, 578, 441)" opacity="0.70"></rect>
    <rect width="394" height="3" x="130" y="316.5" rx="1.5" transform="rotate(45, 327, 318)" opacity="0.67"></rect>
    <rect width="313" height="3" x="36.5" y="608.5" rx="1.5" transform="rotate(45, 193, 610)" opacity="0.12"></rect>
    <rect width="310" height="3" x="214" y="393.5" rx="1.5" transform="rotate(45, 369, 395)" opacity="0.69"></rect>
  </g>
</svg>